{"accessors" : [{"bufferView" : 0, "byteOffset" : 0, "componentType" : 5123, "count" : 288, "type" : "SCALAR", "max" : [244], "min" : [0]}, {"bufferView" : 1, "byteOffset" : 0, "componentType" : 5126, "count" : 245, "type" : "VEC3", "max" : [1.399999976158142, 1.2124356031417847, 0.4000000059604645], "min" : [-1.399999976158142, -1.2124356031417847, -0.4000000059604645], "name" : "POSITION"}, {"bufferView" : 1, "byteOffset" : 12, "componentType" : 5126, "count" : 245, "type" : "VEC3", "max" : [1.0000044107437134, 0.8660292029380798, 1.0000044107437134], "min" : [-1.0000044107437134, -0.8660292029380798, -1.0000044107437134], "name" : "NORMAL"}, {"bufferView" : 1, "byteOffset" : 24, "componentType" : 5126, "count" : 245, "type" : "VEC2", "max" : [1, 1], "min" : [0, 0], "name" : "TEXCOORD_0"}], "asset" : {"generator" : "Aspose.3D 21.11", "version" : "2.0"}, "buffers" : [{"uri" : "data:application/octet-stream;base64,", "byteLength" : 9800}], "bufferViews" : [{"buffer" : 0, "byteOffset" : 0, "byteLength" : 576, "target" : 34963}, {"buffer" : 0, "byteOffset" : 580, "byteLength" : 9216, "byteStride" : 32, "target" : 34962}], "materials" : [{"pbrMetallicRoughness" : {"baseColorFactor" : [1, 0.1803921568627451, 0.7803921568627451, 1], "metallicFactor" : 0.5, "roughnessFactor" : 0.5}, "emissiveFactor" : [0, 0, 0], "alphaMode" : "OPAQUE", "doubleSided" : false}], "meshes" : [{"primitives" : [{"attributes" : {"POSITION" : 1, "NORMAL" : 2, "TEXCOORD_0" : 3}, "indices" : 0, "material" : 0, "mode" : 4}]}], "nodes" : [{"mesh" : 0, "name" : "Torus"}], "scene" : 0, "scenes" : [{"nodes" : [0]}]}